<svg width="141" height="138" viewBox="0 0 141 138" fill="none" xmlns="http://www.w3.org/2000/svg">
<g clip-path="url(#clip0_224_1011)">
<path d="M102.696 25.6409C102.678 30.9982 102.314 36.3488 101.605 41.6594C101.58 41.8459 101.553 42.0324 101.528 42.2189H51.1117C50.9627 42.0347 50.8159 41.8482 50.6737 41.6594C50.1995 41.0348 49.7547 40.3922 49.346 39.7271C47.3815 36.5229 46.4693 32.7637 47.3477 30.1618L47.3634 30.1213C47.553 29.5516 47.8538 29.0247 48.2486 28.5709C50.2717 26.279 54.3903 26.6363 58.1363 28.4563C54.7652 24.8252 52.0714 20.2347 51.8456 16.125C51.6243 12.1164 53.7151 9.24034 55.9867 6.7934C56.0612 6.71251 56.1357 6.63386 56.2103 6.55522C56.2464 6.51477 56.2848 6.47657 56.3209 6.43613C58.0934 4.57115 60.1617 2.7309 63.1717 2.93538C66.4728 3.16008 70.1466 5.89013 72.7297 9.08081C75.3129 12.2692 77.0379 15.8981 78.7856 19.4393C80.5356 22.9782 82.4277 26.6071 85.2209 29.6247C81.4343 24.9129 78.3724 19.5449 77.2231 14.314C76.0738 9.08306 77.0312 4.04762 80.3684 1.56249C81.3817 0.831109 82.5563 0.351872 83.7939 0.164881C83.9383 0.140164 84.0851 0.119942 84.2341 0.101966C87.3344 -0.266524 91.0443 0.780548 94.21 3.31512C97.6963 6.10584 100.126 10.2582 101.345 14.2061C102.565 18.154 102.713 21.9604 102.696 25.6409Z" fill="#009647"/>
<path d="M69.8035 42.2189H68.8394C68.5322 42.0302 68.2236 41.8437 67.9136 41.6594C67.7217 41.5403 67.5275 41.4258 67.3332 41.3089C64.1247 39.3833 60.8965 37.537 57.6488 35.7702C54.4041 34.0018 51.1435 32.3158 47.8671 30.7123C47.7803 30.6752 47.7093 30.6091 47.6664 30.5253C47.6235 30.4416 47.6114 30.3455 47.6323 30.2539C47.6357 30.2419 47.6411 30.2305 47.6482 30.2202C47.6933 30.1348 47.7949 30.0988 47.944 30.1707C48.3459 30.3685 48.75 30.5662 49.1519 30.7684C52.4374 32.3997 55.7092 34.1134 58.9674 35.9095C62.2234 37.7048 65.4614 39.5803 68.6813 41.5359C68.749 41.5763 68.8168 41.619 68.8845 41.6594C69.1916 41.8459 69.4964 42.0324 69.8035 42.2189Z" fill="white"/>
<path d="M82.2337 42.2189H81.6376C81.5021 42.0324 81.3689 41.8459 81.2334 41.6594C78.0497 37.2689 74.8667 32.8783 71.6843 28.4878C66.4729 21.2998 61.263 14.1117 56.0546 6.92372C56.0238 6.88504 56.0007 6.84078 55.9868 6.79339C55.9417 6.63386 56.0591 6.53949 56.2104 6.55521C56.2742 6.56392 56.3354 6.58606 56.3899 6.62016C56.4444 6.65425 56.491 6.69952 56.5265 6.75295C59.4483 10.784 62.3694 14.8135 65.2898 18.8416C70.4741 25.9936 75.6577 33.145 80.8406 40.2955C81.1702 40.7494 81.4999 41.2056 81.8295 41.6594C81.965 41.8459 82.1005 42.0324 82.2337 42.2189Z" fill="white"/>
<path d="M95.4948 38.7002C95.4699 39.7001 95.409 40.6842 95.3276 41.6594C95.3118 41.8459 95.296 42.0324 95.2802 42.2189H94.6547C94.6728 42.0324 94.6909 41.8459 94.7067 41.6594C94.8309 40.2506 94.9167 38.826 94.9212 37.3632C94.9151 33.3079 94.4952 29.2636 93.6681 25.2926C92.7886 21.0169 91.5366 16.8254 89.9265 12.7658C88.2365 8.48411 86.2046 4.34396 83.8504 0.385061C83.8061 0.320569 83.7861 0.242586 83.7939 0.16486C83.8187 -0.0126493 84.0558 -0.066576 84.2341 0.101946C84.2694 0.135009 84.2998 0.172827 84.3244 0.214294C84.6157 0.706378 84.9018 1.19996 85.1825 1.69504C87.4509 5.67647 89.3967 9.83152 91.0014 14.1207C92.5298 18.1941 93.6986 22.3924 94.4944 26.6677C95.2397 30.6341 95.5749 34.6659 95.4948 38.7002Z" fill="white"/>
<path d="M139.029 41.6594H1.9689C1.44685 41.6599 0.946323 41.8665 0.577183 42.2338C0.208043 42.6012 0.000458569 43.0993 0 43.6188V136.041C0.000457972 136.56 0.208043 137.058 0.577183 137.426C0.946323 137.793 1.44685 138 1.9689 138H139.029C139.313 138 139.595 137.939 139.853 137.82C140.112 137.701 140.341 137.528 140.526 137.312C140.542 137.296 140.556 137.278 140.569 137.258C140.686 137.116 140.782 136.956 140.851 136.784C140.95 136.549 141.001 136.296 141 136.041V43.6188C140.999 43.0989 140.792 42.6005 140.422 42.2332C140.052 41.8658 139.551 41.6594 139.029 41.6594ZM140.438 136.041C140.438 136.314 140.357 136.581 140.205 136.809C140.07 137.01 139.887 137.173 139.672 137.285C139.473 137.388 139.253 137.441 139.029 137.441H1.9689C1.59596 137.44 1.23841 137.292 0.974695 137.03C0.71098 136.768 0.562628 136.412 0.562175 136.041V43.6188C0.562625 43.2477 0.71098 42.8919 0.974695 42.6294C1.23841 42.367 1.59595 42.2194 1.9689 42.2189H139.029C139.402 42.2189 139.76 42.3663 140.024 42.6287C140.289 42.8912 140.437 43.2473 140.438 43.6188V136.041Z" fill="#3F3D56"/>
<path d="M140.718 49.5124H0.280518V50.0725H140.718V49.5124Z" fill="#3F3D56"/>
<path d="M5.06509 47.5407C5.99769 47.5407 6.75371 46.7884 6.75371 45.8604C6.75371 44.9323 5.99769 44.18 5.06509 44.18C4.13249 44.18 3.37646 44.9323 3.37646 45.8604C3.37646 46.7884 4.13249 47.5407 5.06509 47.5407Z" fill="#3F3D56"/>
<path d="M9.91982 47.5407C10.8524 47.5407 11.6084 46.7884 11.6084 45.8604C11.6084 44.9323 10.8524 44.18 9.91982 44.18C8.98722 44.18 8.2312 44.9323 8.2312 45.8604C8.2312 46.7884 8.98722 47.5407 9.91982 47.5407Z" fill="#3F3D56"/>
<path d="M14.7746 47.5407C15.7072 47.5407 16.4632 46.7884 16.4632 45.8604C16.4632 44.9323 15.7072 44.18 14.7746 44.18C13.842 44.18 13.0859 44.9323 13.0859 45.8604C13.0859 46.7884 13.842 47.5407 14.7746 47.5407Z" fill="#3F3D56"/>
<path d="M62.5411 97.13C60.8523 96.0361 60.0123 93.4937 60.4261 91.1685C60.8399 88.8434 62.3983 86.8407 64.2664 85.9771C65.1752 85.5695 66.1714 85.3929 67.1657 85.4632C68.16 85.5336 69.1211 85.8486 69.9628 86.38C71.6759 87.4224 74.0988 87.9934 74.9124 90.079C75.5375 91.6818 74.7446 94.9364 73.9032 96.4931C73.1759 97.8387 71.7939 98.4542 70.4955 98.7216C69.0591 99.0131 67.5765 98.9942 66.1481 98.6662C64.7196 98.3382 63.3786 97.7088 62.2157 96.8205L62.5411 97.13Z" fill="#2F2E41"/>
<path d="M61.6603 109.479L60.31 111.796L60.1316 112.102L59.8719 112.551H55.8911L56.1598 112.102L56.8553 110.935L58.4765 108.212L60.3123 108.942L61.6603 109.479Z" fill="#FFB8B8"/>
<path d="M55.593 112.551L54.866 112.102L54.7756 112.045L59.339 103.77C59.5353 103.412 59.801 103.096 60.1207 102.84C60.4405 102.585 60.808 102.395 61.2019 102.282C61.6992 102.135 62.2259 102.116 62.7328 102.226C63.0285 102.288 63.3132 102.394 63.5773 102.541C63.686 102.6 63.7908 102.666 63.8911 102.738C64.277 103.008 64.5941 103.363 64.8169 103.777C65.0821 104.26 65.2131 104.806 65.1964 105.357C65.1798 105.907 65.016 106.444 64.7221 106.911L62.9631 109.709L61.4593 112.102L61.177 112.551H55.593Z" fill="#2F2E41"/>
<path d="M67.3173 100.067C70.3802 100.067 72.8632 97.5964 72.8632 94.5484C72.8632 91.5005 70.3802 89.0297 67.3173 89.0297C64.2544 89.0297 61.7715 91.5005 61.7715 94.5484C61.7715 97.5964 64.2544 100.067 67.3173 100.067Z" fill="#FFB8B8"/>
<path d="M72.8848 112.551H60.4184L60.4749 112.391C60.4433 112.295 60.4139 112.198 60.3868 112.102C60.3575 112 60.3326 111.897 60.3101 111.796C60.1075 110.855 60.1082 109.883 60.3123 108.942C61.001 105.576 63.749 102.842 63.749 102.842C63.7964 102.806 63.8438 102.772 63.8912 102.738C64.3 102.441 64.7435 102.193 65.2122 102.001C67.2534 101.159 69.3939 101.498 70.8322 101.934C71.3331 102.085 71.8228 102.27 72.2977 102.489C72.4647 102.568 72.5551 102.617 72.5551 102.617L72.6974 106.934L72.8689 112.102L72.8848 112.551Z" fill="#009647"/>
<path d="M78.6515 112.102L77.6986 107.28L76.7368 102.417C76.6967 102.216 76.5965 102.032 76.4494 101.889C76.3023 101.746 76.1151 101.65 75.9125 101.615L73.8984 101.269L72.0243 100.948C71.8435 100.915 71.6573 100.933 71.4858 100.998C71.3142 101.063 71.1639 101.174 71.0511 101.318C70.9103 101.493 70.833 101.71 70.832 101.934C70.8321 102.072 70.8605 102.209 70.9156 102.336C71.8933 104.606 71.9114 108.199 71.663 112.102C71.6518 112.25 71.6427 112.4 71.6314 112.551H78.7418L78.6515 112.102Z" fill="#2F2E41"/>
<path d="M65.2121 102.001C65.1706 101.838 65.0889 101.687 64.9744 101.563C64.8599 101.439 64.7161 101.345 64.556 101.289C64.3958 101.234 64.2244 101.219 64.0571 101.246C63.8899 101.273 63.7319 101.341 63.5976 101.444L62.7328 102.226L59.1922 105.435C59.0819 105.533 58.9954 105.656 58.9393 105.792C58.5397 106.743 57.7607 108.619 56.8552 110.935C56.7085 111.313 56.5572 111.702 56.4014 112.102C56.3472 112.25 56.2885 112.4 56.2297 112.551H62.0645C62.1119 112.4 62.1593 112.25 62.2067 112.102C62.4663 111.286 62.7192 110.486 62.9631 109.709C63.6766 107.45 64.3201 105.399 64.8169 103.777C64.9546 103.327 65.0803 102.912 65.194 102.532C65.2471 102.36 65.2533 102.177 65.2121 102.001Z" fill="#2F2E41"/>
<path d="M79.9611 112.551H80.3382L80.2863 112.425L80.1485 112.102L78.0238 107.084L77.6986 107.28L75.0884 108.85L76.4274 112.102L76.6125 112.551H78.7418H79.9611Z" fill="#FFB8B8"/>
<path d="M77.807 103.105C77.5195 102.356 76.9522 101.747 76.2238 101.405C75.4953 101.062 74.6621 101.014 73.8984 101.269C73.8008 101.301 73.7051 101.339 73.6117 101.381C73.0767 101.619 72.6209 102.003 72.2976 102.489C72.1656 102.683 72.0572 102.892 71.9746 103.111C71.8281 103.492 71.7588 103.898 71.7709 104.306C71.7829 104.714 71.8759 105.115 72.0446 105.487L72.6972 106.934L75.032 112.102L75.2351 112.551H79.9611L80.2863 112.425L81.1308 112.102L81.2482 112.057L77.807 103.105Z" fill="#2F2E41"/>
<path d="M71.673 88.21C71.8663 88.2677 72.0733 88.2603 72.262 88.1891C72.4507 88.1179 72.6105 87.9867 72.7167 87.8159C72.8172 87.6419 72.8764 87.4472 72.8896 87.2469C72.9029 87.0466 72.8698 86.8459 72.793 86.6602C72.6357 86.2896 72.3876 85.9641 72.0715 85.7132C71.7126 85.39 71.2756 85.1649 70.8031 85.0597C70.5671 85.0092 70.3229 85.0098 70.0871 85.0614C69.8513 85.113 69.6294 85.2144 69.4364 85.3587C69.2469 85.5079 69.1065 85.71 69.033 85.939C68.9596 86.1681 68.9565 86.4137 69.0242 86.6445C69.1677 87.059 69.5567 87.3366 69.9451 87.5434C70.7158 87.9528 71.5657 88.1932 72.4375 88.2485L71.673 88.21Z" fill="#2F2E41"/>
<path d="M72.752 94.3836C71.8604 94.5059 71.9749 94.0543 71.6178 93.2322C71.2607 92.41 70.7827 91.4341 69.8866 91.3508C69.1522 91.2826 68.5471 91.8668 67.9521 92.3006C66.8917 93.0739 65.4626 93.4524 64.2334 92.9885C63.0042 92.5246 62.15 91.0668 62.6164 89.8436C62.7616 89.5059 62.9749 89.2014 63.2431 88.9491C63.5114 88.6967 63.8288 88.5018 64.1759 88.3765C64.872 88.1302 65.6114 88.028 66.3486 88.0762C67.9883 88.1284 69.5965 88.538 71.0597 89.2763C72.0695 89.7868 73.0526 90.5173 73.4356 91.5781C73.8187 92.6388 74.0708 94.1294 72.9754 94.4164L72.752 94.3836Z" fill="#2F2E41"/>
<path d="M71.2174 85.2925C70.7766 84.5291 71.1404 83.4817 71.8615 82.9716C72.5826 82.4616 73.5499 82.4115 74.4104 82.6161C75.2614 82.8294 76.0411 83.2617 76.6712 83.8694C77.3014 84.4772 77.7598 85.2392 78.0007 86.079C78.3658 87.4139 78.1487 88.8478 78.458 90.1966C78.6228 90.9157 78.9338 91.5935 79.3718 92.1885C79.8099 92.7834 80.3657 93.2828 81.0049 93.6559C81.6442 94.029 82.3535 94.2679 83.0891 94.358C83.8247 94.448 84.571 94.3873 85.2822 94.1795C86.2084 93.9088 87.1496 93.2508 87.2407 92.2944C87.3366 93.3926 87.085 94.4932 86.5211 95.442C85.9572 96.3908 85.1092 97.1404 84.0959 97.5858C82.9025 98.0811 81.5713 98.1135 80.2787 98.0804C79.4364 98.0589 78.5748 98.0085 77.7977 97.6842C77.26 97.4401 76.7767 97.0918 76.376 96.6595C75.9754 96.2272 75.6655 95.7197 75.4644 95.1667C75.0688 94.0552 74.9619 92.8621 75.1538 91.6985C75.281 90.7933 75.534 89.9062 75.6048 88.9949C75.6756 88.0837 75.5413 87.1107 74.9768 86.3898C74.4123 85.6689 73.3339 85.3007 72.5313 85.745C72.2087 85.9235 71.9485 86.2152 71.598 86.3304C71.2475 86.4456 70.7508 86.2431 70.7827 85.8772L71.2174 85.2925Z" fill="#2F2E41"/>
<path d="M109.062 112.551L109.105 112.102L110.379 98.9164C110.796 98.5912 111.245 98.3074 111.718 98.0693C114.339 96.7548 116.868 97.384 118.236 97.9277C118.599 98.069 118.95 98.2396 119.284 98.4378L120.029 112.102L120.054 112.551H109.062Z" fill="#009647"/>
<path d="M115.026 95.4073C118.089 95.4073 120.572 92.9364 120.572 89.8885C120.572 86.8406 118.089 84.3698 115.026 84.3698C111.963 84.3698 109.48 86.8406 109.48 89.8885C109.48 92.9364 111.963 95.4073 115.026 95.4073Z" fill="#FFB8B8"/>
<path d="M119.526 93.2535C119.938 92.8212 120.212 92.2766 120.312 91.6891C120.412 91.1015 120.335 90.4975 120.089 89.954C119.844 89.4104 119.441 88.9518 118.933 88.6366C118.425 88.3213 117.834 88.1636 117.235 88.1835C116.468 88.209 115.746 88.5213 115.014 88.7505C113.904 89.126 112.721 89.232 111.562 89.0598C110.397 88.8797 109.345 88.2616 108.623 87.3328C107.937 86.3944 107.723 85.0927 108.208 84.0372C108.767 82.8185 110.075 82.1471 111.304 81.6015C111.8 81.3544 112.33 81.1812 112.877 81.0875C113.15 81.0422 113.431 81.0537 113.7 81.1212C113.969 81.1887 114.221 81.3108 114.44 81.4798C114.786 81.7756 114.989 82.2201 115.365 82.4764C115.788 82.765 116.338 82.7574 116.848 82.8083C117.998 82.9228 119.086 83.383 119.967 84.1277C120.847 84.8724 121.479 85.8662 121.779 86.9771C122.078 88.0879 122.03 89.2631 121.642 90.3463C121.253 91.4295 120.543 92.3693 119.605 93.0409L119.526 93.2535Z" fill="#2F2E41"/>
<path d="M112.544 100.352L111.718 98.0693L111.666 97.927C111.642 97.8595 111.602 97.7985 111.55 97.7485C111.499 97.6985 111.436 97.6608 111.368 97.6384C111.299 97.6159 111.227 97.6093 111.155 97.6189C111.084 97.6286 111.016 97.6543 110.956 97.6941L110.017 98.3165C110.017 98.3165 104 98.3165 103.517 101.909C103.51 101.966 103.501 102.028 103.494 102.096C103.494 102.099 103.493 102.102 103.492 102.105C103.431 102.341 102.295 106.709 101.32 112.102C101.293 112.25 101.265 112.4 101.238 112.551H114.314C114.74 107.134 114.502 102.097 112.544 100.352Z" fill="#2F2E41"/>
<path d="M128.142 112.102C127.429 106.57 126.408 102.096 126.408 102.096C126.399 102.028 126.39 101.966 126.383 101.909C125.902 98.3165 119.885 98.3165 119.885 98.3165L118.947 97.6944C118.887 97.6546 118.819 97.6289 118.747 97.6192C118.676 97.6096 118.603 97.6163 118.535 97.6388C118.466 97.6613 118.404 97.699 118.352 97.749C118.3 97.7991 118.261 97.8602 118.236 97.9277L117.358 100.352C115.4 102.097 115.162 107.134 115.588 112.551L128.199 112.551C128.181 112.4 128.16 112.25 128.142 112.102Z" fill="#2F2E41"/>
<path d="M22.2245 99.5051L20.8832 112.102L20.8358 112.551H17.2073C17.2502 112.405 17.2931 112.254 17.3383 112.102C18.3679 108.587 19.7701 103.458 19.6187 102.098C19.3817 99.977 21.0413 99.2692 21.0413 99.2692L21.1452 99.2894L22.2245 99.5051Z" fill="#009647"/>
<path d="M28.0764 95.6171C31.1393 95.6171 33.6222 93.1462 33.6222 90.0983C33.6222 87.0504 31.1393 84.5796 28.0764 84.5796C25.0135 84.5796 22.5305 87.0504 22.5305 90.0983C22.5305 93.1462 25.0135 95.6171 28.0764 95.6171Z" fill="#A0616A"/>
<path d="M35.2552 109.877C34.9756 110.39 34.7465 110.929 34.5711 111.486C34.5056 111.684 34.4424 111.89 34.3837 112.102C34.3408 112.248 34.3024 112.398 34.264 112.551H19.6367C19.6571 112.403 19.6751 112.252 19.6955 112.102C20.4429 106.226 21.048 100.262 21.1451 99.2894C21.1541 99.1973 21.1587 99.1501 21.1587 99.1501C29.9241 94.5528 36.321 100.566 36.321 100.566C36.321 100.566 36.3301 100.608 36.3436 100.691C36.4837 101.532 37.1971 106.439 35.2552 109.877Z" fill="#009647"/>
<path d="M34.5711 111.486L33.5957 109.405L33.8327 101.154L36.3437 100.691L36.4317 100.676C37.7296 101.427 38.7339 102.592 39.2812 103.983C39.769 105.197 40.697 108.846 41.4806 112.102C41.5167 112.252 41.5528 112.403 41.589 112.551H35.0701L34.8601 112.102L34.5711 111.486Z" fill="#009647"/>
<path d="M43.4925 75.4761H11.4246C10.7367 75.477 10.0773 75.7492 9.59092 76.2332C9.10454 76.7172 8.83091 77.3734 8.83008 78.0579V109.969C8.83091 110.654 9.10454 111.31 9.59092 111.794C10.0773 112.278 10.7367 112.55 11.4246 112.551H43.4925C44.1805 112.55 44.8401 112.278 45.3265 111.794C45.813 111.31 46.0864 110.654 46.0869 109.969V78.0579C46.0864 77.3733 45.813 76.7169 45.3265 76.2328C44.8401 75.7487 44.1805 75.4766 43.4925 75.4761ZM45.6353 109.969C45.6348 110.535 45.4089 111.077 45.0072 111.476C44.6054 111.876 44.0607 112.101 43.4925 112.102H11.4246C10.8565 112.101 10.312 111.876 9.91028 111.476C9.5086 111.076 9.28255 110.534 9.28168 109.969V78.0579C9.28255 77.4926 9.5086 76.9507 9.91028 76.551C10.312 76.1513 10.8565 75.9264 11.4246 75.9255H43.4925C44.0607 75.926 44.6054 76.1508 45.0072 76.5506C45.4089 76.9504 45.6348 77.4925 45.6353 78.0579V109.969ZM20.8832 112.102L20.8358 112.551H34.2641C34.3024 112.398 34.3408 112.248 34.3837 112.102H20.8832Z" fill="#3F3D56"/>
<path d="M86.532 75.4761H54.4641C53.7763 75.477 53.1168 75.7492 52.6305 76.2332C52.1441 76.7172 51.8705 77.3734 51.8696 78.0579V109.969C51.8705 110.654 52.1441 111.31 52.6305 111.794C53.1168 112.278 53.7763 112.55 54.4641 112.551H86.532C87.22 112.55 87.8796 112.278 88.3661 111.794C88.8525 111.31 89.126 110.654 89.1264 109.969V78.0579C89.126 77.3733 88.8525 76.7169 88.3661 76.2328C87.8796 75.7487 87.22 75.4766 86.532 75.4761ZM88.6748 109.969C88.6743 110.535 88.4484 111.077 88.0467 111.476C87.645 111.876 87.1002 112.101 86.532 112.102H54.4641C53.8961 112.101 53.3515 111.876 52.9498 111.476C52.5481 111.076 52.3221 110.534 52.3212 109.969V78.0579C52.3221 77.4926 52.5481 76.9507 52.9498 76.551C53.3515 76.1513 53.8961 75.9264 54.4641 75.9255H86.532C87.1002 75.926 87.645 76.1508 88.0467 76.5506C88.4484 76.9504 88.6743 77.4925 88.6748 78.0579V109.969ZM60.3868 112.102C60.4139 112.198 60.4433 112.295 60.4749 112.391L60.4184 112.551H71.6315C71.6429 112.4 71.6519 112.25 71.6632 112.102H60.3868Z" fill="#3F3D56"/>
<path d="M129.574 75.4761H97.5059C96.8179 75.4766 96.1582 75.7487 95.6718 76.2328C95.1853 76.7169 94.9118 77.3733 94.9114 78.0579V109.969C94.9118 110.654 95.1853 111.31 95.6718 111.794C96.1582 112.278 96.8179 112.551 97.5059 112.551H129.574C130.262 112.55 130.921 112.278 131.407 111.794C131.894 111.31 132.167 110.654 132.168 109.969V78.0579C132.167 77.3734 131.894 76.7172 131.407 76.2333C130.921 75.7493 130.262 75.477 129.574 75.4761ZM131.717 109.969C131.716 110.534 131.49 111.076 131.088 111.476C130.686 111.876 130.142 112.101 129.574 112.102H97.5059C96.9377 112.101 96.3929 111.876 95.9911 111.476C95.5894 111.077 95.3635 110.535 95.363 109.969V78.0579C95.3635 77.4925 95.5894 76.9504 95.9911 76.5506C96.3929 76.1508 96.9377 75.926 97.5059 75.9255H129.574C130.142 75.9264 130.686 76.1513 131.088 76.551C131.49 76.9508 131.716 77.4926 131.717 78.0579V109.969ZM114.348 112.102C114.337 112.25 114.326 112.4 114.314 112.551H124.044C124.062 112.403 124.082 112.252 124.1 112.102H114.348Z" fill="#3F3D56"/>
<path d="M107.756 125.583H33.2424C32.7633 125.583 32.3039 125.394 31.9651 125.057C31.6264 124.72 31.436 124.262 31.436 123.786C31.436 123.309 31.6264 122.852 31.9651 122.515C32.3039 122.178 32.7633 121.988 33.2424 121.988H107.756C108.235 121.988 108.695 122.178 109.033 122.515C109.372 122.852 109.562 123.309 109.562 123.786C109.562 124.262 109.372 124.72 109.033 125.057C108.695 125.394 108.235 125.583 107.756 125.583Z" fill="#CCCCCC"/>
<path d="M86.8695 66.0389H54.1287C53.6496 66.0389 53.1901 65.8495 52.8513 65.5124C52.5126 65.1753 52.3223 64.7181 52.3223 64.2414C52.3223 63.7646 52.5126 63.3074 52.8513 62.9703C53.1901 62.6332 53.6496 62.4438 54.1287 62.4438H86.8695C87.3486 62.4438 87.808 62.6332 88.1468 62.9703C88.4856 63.3074 88.6759 63.7646 88.6759 64.2414C88.6759 64.7181 88.4856 65.1753 88.1468 65.5124C87.808 65.8495 87.3486 66.0389 86.8695 66.0389Z" fill="#009647"/>
<path d="M30.729 94.9065C30.9168 95.0908 31.1651 95.2015 31.4284 95.2183C31.6916 95.235 31.952 95.1568 32.1619 94.9978C33.469 94.0337 34.6165 92.8336 35.2955 91.3697C36.0736 89.6924 36.1604 87.6341 35.2223 86.0399C34.4292 84.6922 33.0288 83.8226 31.633 83.1085C31.0911 82.8041 30.5073 82.5802 29.9003 82.4439C29.2867 82.3092 28.6447 82.4123 28.1048 82.7322C27.8407 82.897 27.6327 83.1372 27.5078 83.4214C27.3829 83.7056 27.347 84.0207 27.4047 84.3255C26.7343 83.5643 25.8756 82.9907 24.9137 82.6615C24.308 82.4257 23.6448 82.3779 23.0113 82.5243C22.1256 82.7743 21.479 83.5574 21.1253 84.4032C20.8393 85.0466 20.7405 85.757 20.8402 86.4535C20.8927 86.8001 21.0177 87.1319 21.2072 87.4274C21.3966 87.7229 21.6463 87.9756 21.94 88.169C22.6723 88.6199 23.6066 88.5874 24.4475 88.4032C25.2885 88.219 26.1026 87.8986 26.9599 87.8176C27.8171 87.7365 28.7718 87.9493 29.2935 88.631C29.6609 89.1111 29.7553 89.7384 29.8377 90.3362L30.2667 93.4458C30.3018 93.8957 30.4172 94.3357 30.6076 94.7451C30.6406 94.8041 30.6814 94.8584 30.729 94.9065Z" fill="#2F2E41"/>
</g>
<defs>
<clipPath id="clip0_224_1011">
<rect width="141" height="138" fill="white"/>
</clipPath>
</defs>
</svg>
